<mxfile host="app.diagrams.net" modified="2024-02-29T09:32:40.113Z" agent="Mozilla/5.0 (X11; Linux x86_64) AppleWebKit/537.36 (KHTML, like Gecko) Chrome/121.0.0.0 Safari/537.36" etag="7sR5LzkpsjgeClGXAMU1" version="23.1.6" type="device">
  <diagram name="Page-1" id="XQVxtGu4eX-LHZyxRlIG">
    <mxGraphModel dx="1947" dy="481" grid="1" gridSize="10" guides="1" tooltips="1" connect="1" arrows="1" fold="1" page="1" pageScale="1" pageWidth="827" pageHeight="1169" math="0" shadow="0">
      <root>
        <mxCell id="0" />
        <mxCell id="1" parent="0" />
        <mxCell id="qHDuYNhqz52Dd_ajb72W-1" value="" style="whiteSpace=wrap;html=1;" vertex="1" parent="1">
          <mxGeometry x="-90" y="330" width="810" height="400" as="geometry" />
        </mxCell>
        <mxCell id="qHDuYNhqz52Dd_ajb72W-8" value="combo SG" style="rounded=1;whiteSpace=wrap;html=1;" vertex="1" parent="1">
          <mxGeometry x="-60" y="420" width="490" height="310" as="geometry" />
        </mxCell>
        <mxCell id="qHDuYNhqz52Dd_ajb72W-2" value="web" style="rounded=1;whiteSpace=wrap;html=1;" vertex="1" parent="1">
          <mxGeometry x="-20" y="430" width="120" height="290" as="geometry" />
        </mxCell>
        <mxCell id="qHDuYNhqz52Dd_ajb72W-3" value="api" style="rounded=1;whiteSpace=wrap;html=1;" vertex="1" parent="1">
          <mxGeometry x="140" y="430" width="120" height="290" as="geometry" />
        </mxCell>
        <mxCell id="qHDuYNhqz52Dd_ajb72W-4" value="api2" style="rounded=1;whiteSpace=wrap;html=1;" vertex="1" parent="1">
          <mxGeometry x="294" y="430" width="120" height="290" as="geometry" />
        </mxCell>
        <mxCell id="qHDuYNhqz52Dd_ajb72W-5" value="pub1" style="rounded=1;whiteSpace=wrap;html=1;" vertex="1" parent="1">
          <mxGeometry x="450" y="430" width="120" height="290" as="geometry" />
        </mxCell>
        <mxCell id="qHDuYNhqz52Dd_ajb72W-6" value="pub2" style="rounded=1;whiteSpace=wrap;html=1;" vertex="1" parent="1">
          <mxGeometry x="590" y="430" width="120" height="290" as="geometry" />
        </mxCell>
        <mxCell id="qHDuYNhqz52Dd_ajb72W-9" value="RDS" style="shape=cylinder3;whiteSpace=wrap;html=1;boundedLbl=1;backgroundOutline=1;size=15;" vertex="1" parent="1">
          <mxGeometry x="620" y="340" width="60" height="80" as="geometry" />
        </mxCell>
        <mxCell id="qHDuYNhqz52Dd_ajb72W-13" style="edgeStyle=orthogonalEdgeStyle;rounded=0;orthogonalLoop=1;jettySize=auto;html=1;exitX=1;exitY=0.5;exitDx=0;exitDy=0;exitPerimeter=0;" edge="1" parent="1" source="qHDuYNhqz52Dd_ajb72W-10">
          <mxGeometry relative="1" as="geometry">
            <mxPoint x="800" y="440" as="targetPoint" />
          </mxGeometry>
        </mxCell>
        <mxCell id="qHDuYNhqz52Dd_ajb72W-16" style="edgeStyle=orthogonalEdgeStyle;rounded=0;orthogonalLoop=1;jettySize=auto;html=1;exitX=0;exitY=0.5;exitDx=0;exitDy=0;exitPerimeter=0;entryX=1;entryY=0.5;entryDx=0;entryDy=0;" edge="1" parent="1" source="qHDuYNhqz52Dd_ajb72W-10" target="qHDuYNhqz52Dd_ajb72W-2">
          <mxGeometry relative="1" as="geometry" />
        </mxCell>
        <mxCell id="qHDuYNhqz52Dd_ajb72W-10" value="" style="shape=or;whiteSpace=wrap;html=1;" vertex="1" parent="1">
          <mxGeometry x="470" y="470" width="60" height="80" as="geometry" />
        </mxCell>
        <mxCell id="qHDuYNhqz52Dd_ajb72W-11" value="" style="shape=or;whiteSpace=wrap;html=1;" vertex="1" parent="1">
          <mxGeometry x="620" y="470" width="60" height="80" as="geometry" />
        </mxCell>
        <mxCell id="qHDuYNhqz52Dd_ajb72W-20" value="" style="shape=or;whiteSpace=wrap;html=1;" vertex="1" parent="1">
          <mxGeometry x="630" y="610" width="60" height="80" as="geometry" />
        </mxCell>
        <mxCell id="qHDuYNhqz52Dd_ajb72W-23" style="edgeStyle=orthogonalEdgeStyle;rounded=0;orthogonalLoop=1;jettySize=auto;html=1;exitX=1;exitY=0.5;exitDx=0;exitDy=0;exitPerimeter=0;" edge="1" parent="1" source="qHDuYNhqz52Dd_ajb72W-21">
          <mxGeometry relative="1" as="geometry">
            <mxPoint x="830" y="650" as="targetPoint" />
          </mxGeometry>
        </mxCell>
        <mxCell id="qHDuYNhqz52Dd_ajb72W-21" value="" style="shape=or;whiteSpace=wrap;html=1;" vertex="1" parent="1">
          <mxGeometry x="480" y="610" width="60" height="80" as="geometry" />
        </mxCell>
        <mxCell id="qHDuYNhqz52Dd_ajb72W-24" style="edgeStyle=orthogonalEdgeStyle;rounded=0;orthogonalLoop=1;jettySize=auto;html=1;entryX=1;entryY=0.831;entryDx=0;entryDy=0;entryPerimeter=0;" edge="1" parent="1" source="qHDuYNhqz52Dd_ajb72W-21" target="qHDuYNhqz52Dd_ajb72W-3">
          <mxGeometry relative="1" as="geometry" />
        </mxCell>
        <mxCell id="qHDuYNhqz52Dd_ajb72W-26" style="edgeStyle=orthogonalEdgeStyle;rounded=0;orthogonalLoop=1;jettySize=auto;html=1;exitX=0.5;exitY=0.5;exitDx=0;exitDy=0;exitPerimeter=0;" edge="1" parent="1" source="qHDuYNhqz52Dd_ajb72W-25">
          <mxGeometry relative="1" as="geometry">
            <mxPoint x="830" y="650" as="targetPoint" />
          </mxGeometry>
        </mxCell>
        <mxCell id="qHDuYNhqz52Dd_ajb72W-25" value="Actor" style="shape=umlActor;verticalLabelPosition=bottom;verticalAlign=top;html=1;outlineConnect=0;" vertex="1" parent="1">
          <mxGeometry x="780" y="360" width="30" height="60" as="geometry" />
        </mxCell>
        <mxCell id="qHDuYNhqz52Dd_ajb72W-32" value="" style="shape=flexArrow;endArrow=classic;startArrow=classic;html=1;rounded=0;" edge="1" parent="1">
          <mxGeometry width="100" height="100" relative="1" as="geometry">
            <mxPoint x="230" y="479.61538461538464" as="sourcePoint" />
            <mxPoint x="620" y="370" as="targetPoint" />
            <Array as="points">
              <mxPoint x="300" y="380" />
            </Array>
          </mxGeometry>
        </mxCell>
        <mxCell id="qHDuYNhqz52Dd_ajb72W-33" value="Vertical Container" style="swimlane;whiteSpace=wrap;html=1;" vertex="1" parent="1">
          <mxGeometry x="157" y="480" width="86" height="85" as="geometry" />
        </mxCell>
      </root>
    </mxGraphModel>
  </diagram>
</mxfile>
